<?xml version="1.0" encoding="UTF-8" standalone="no"?>
<svg
   version="1.1"
   viewBox="0 0 921600 291600"
   fill="none"
   stroke="none"
   stroke-linecap="square"
   stroke-miterlimit="10"
   id="svg5"
   sodipodi:docname="Settings Screen Mockups, v2.svg"
   width="921600"
   height="291600"
   xmlns:inkscape="http://www.inkscape.org/namespaces/inkscape"
   xmlns:sodipodi="http://sodipodi.sourceforge.net/DTD/sodipodi-0.dtd"
   xmlns="http://www.w3.org/2000/svg"
   xmlns:svg="http://www.w3.org/2000/svg">
  <defs
     id="defs5" />
  <sodipodi:namedview
     id="namedview5"
     pagecolor="#ffffff"
     bordercolor="#666666"
     borderopacity="1.0"
     inkscape:showpageshadow="2"
     inkscape:pageopacity="0.0"
     inkscape:pagecheckerboard="0"
     inkscape:deskcolor="#d1d1d1" />
  <clipPath
     id="g2be107e2cde_0_0.0">
    <path
       d="M 0,0 H 960 V 540 H 0 Z"
       clip-rule="nonzero"
       id="path1" />
  </clipPath>
  <g
     inkscape:groupmode="layer"
     id="layer1"
     inkscape:label="Layer 1">
    <path
       fill="#eeeeee"
       d="m 60.979718,117.6316 v 0 c 0,-40.661144 32.96237,-73.623524 73.623522,-73.623524 h 718.20178 c 19.5262,0 38.2527,7.756741 52.0597,21.563831 13.8071,13.807091 21.5639,32.533519 21.5639,52.059693 v 294.48526 c 0,40.66113 -32.9624,73.6235 -73.6236,73.6235 H 134.60324 c -40.661152,0 -73.623522,-32.96237 -73.623522,-73.6235 z"
       fill-rule="evenodd"
       id="path4" />
    <path
       stroke="#000000"
       stroke-width="8"
       stroke-linejoin="round"
       stroke-linecap="butt"
       d="m 60.979718,117.6316 v 0 c 0,-40.661144 32.96237,-73.623524 73.623522,-73.623524 h 718.20178 c 19.5262,0 38.2527,7.756741 52.0597,21.563831 13.8071,13.807091 21.5639,32.533519 21.5639,52.059693 v 294.48526 c 0,40.66113 -32.9624,73.6235 -73.6236,73.6235 H 134.60324 c -40.661152,0 -73.623522,-32.96237 -73.623522,-73.6235 z"
       fill-rule="evenodd"
       id="path5" />
  </g>
</svg>
